<?xml version="1.0" encoding="UTF-8"?>
<svg xmlns="http://www.w3.org/2000/svg" xmlns:xlink="http://www.w3.org/1999/xlink" width="362pt" height="476pt" viewBox="0 0 362 476" version="1.1">
<g id="surface1">
<path style=" stroke:none;fill-rule:nonzero;fill:rgb(0%,0%,0%);fill-opacity:1;" d="M 88.425781 98.773438 C 115.335938 98.816406 137.113281 77.03125 137.125 50.175781 C 137.113281 23.296875 115.335938 1.511719 88.425781 1.476563 C 61.59375 1.511719 39.8125 23.296875 39.824219 50.175781 C 39.8125 77.03125 61.59375 98.816406 88.425781 98.773438 "/>
<path style=" stroke:none;fill-rule:nonzero;fill:rgb(0%,0%,0%);fill-opacity:1;" d="M 51.523438 157.976563 C 42.75 102 123.5 85 136.523438 142.273438 L 158.523438 251.976563 L 240.625 252.074219 C 264.539063 252.097656 277 271.265625 277.023438 288.976563 L 277.023438 438.074219 C 277 474.332031 225.4375 474.160156 225.425781 437.476563 C 225.4375 403.445313 225.425781 321.375 225.425781 321.375 L 120.625 321.375 C 96.167969 321.417969 80.832031 304.644531 77.023438 285.476563 L 51.523438 157.976563 "/>
<path style=" stroke:none;fill-rule:nonzero;fill:rgb(0%,0%,0%);fill-opacity:1;" d="M 187.023438 331.175781 C 214.234375 331.21875 214.105469 371.5 187.425781 371.476563 L 112.125 371.476563 C 75.5 371.5 39 344 29.425781 301.476563 L 6.023438 187.476563 C 1.246094 161.617188 38.5 153 44.023438 179.476563 L 66.226563 288.574219 C 72.46875 316.359375 93.078125 331.21875 118.023438 331.175781 L 187.023438 331.175781 "/>
<path style=" stroke:none;fill-rule:nonzero;fill:rgb(0%,0%,0%);fill-opacity:1;" d="M 288.824219 83.074219 L 325.023438 65.476563 C 330.265625 63.136719 326.871094 55.566406 321.425781 57.976563 L 290.625 71.875 L 290.625 35.476563 C 290.628906 29.734375 281.988281 29.996094 282.023438 35.476563 L 282.125 79.074219 C 282.121094 82.3125 285.644531 84.660156 288.824219 83.074219 "/>
<path style=" stroke:none;fill-rule:nonzero;fill:rgb(0%,0%,0%);fill-opacity:1;" d="M 289.023438 145.773438 C 328.261719 145.792969 360.105469 113.949219 360.125 74.675781 C 360.105469 35.390625 328.261719 3.546875 289.023438 3.574219 C 249.699219 3.546875 217.855469 35.390625 217.824219 74.675781 C 217.855469 113.949219 249.699219 145.792969 289.023438 145.773438 "/>
<path style=" stroke:none;fill-rule:nonzero;fill:rgb(100%,100%,100%);fill-opacity:1;" d="M 289.023438 133.675781 C 321.589844 133.714844 348.023438 107.277344 348.023438 74.675781 C 348.023438 42.058594 321.589844 15.625 289.023438 15.574219 C 256.371094 15.625 229.9375 42.058594 229.925781 74.675781 C 229.9375 107.277344 256.371094 133.714844 289.023438 133.675781 "/>
<path style=" stroke:none;fill-rule:nonzero;fill:rgb(0%,0%,0%);fill-opacity:1;" d="M 288.824219 83.074219 L 325.023438 65.476563 C 330.265625 63.136719 326.871094 55.566406 321.425781 57.976563 L 290.625 71.875 L 290.625 35.476563 C 290.628906 29.734375 281.988281 29.996094 282.023438 35.476563 L 282.125 79.074219 C 282.121094 82.3125 285.644531 84.660156 288.824219 83.074219 "/>
</g>
</svg>
